#N canvas 415 207 666 439 12;
#X obj 104 32 inlet~;
#X obj 104 144 *~;
#X obj 156 126 line~;
#X obj 156 78 expr 1-$f1;
#X obj 281 60 f;
#X obj 281 36 inlet;
#X obj 300 126 line~;
#X obj 235 144 *~;
#X text 127 195 Actual calculation, f 11;
#X obj 104 318 outlet~;
#X obj 156 104 pack 0 10;
#X obj 300 103 pack 0 10;
#N canvas 789 149 450 300 Core 0;
#X obj 39 43 inlet~;
#X obj 40 222 outlet~;
#X obj 103 84 delwrite~ delaychan 500;
#X obj 197 133 *~ 0.6;
#X obj 101 171 delread~ delaychan 1000;
#X obj 295 36 inlet;
#X obj 295 63 switch~;
#X obj 171 32 inlet;
#X obj 236 37 inlet;
#X connect 0 0 2 0;
#X connect 3 0 2 0;
#X connect 4 0 3 0;
#X connect 4 0 1 0;
#X connect 5 0 6 0;
#X connect 7 0 4 0;
#X connect 8 0 3 1;
#X restore 235 220 pd Core;
#X obj 349 168 hsl 128 15 100 2000 0 0 empty empty time -2 -8 0 10
-262144 -1 -1 5800 1;
#X obj 348 205 hsl 128 15 0 0.95 0 0 empty empty feedback -2 -8 0 10
-262144 -1 -1 4600 1;
#X connect 0 0 1 0;
#X connect 0 0 7 0;
#X connect 1 0 9 0;
#X connect 2 0 1 1;
#X connect 3 0 10 0;
#X connect 4 0 3 0;
#X connect 4 0 11 0;
#X connect 4 0 12 3;
#X connect 5 0 4 0;
#X connect 6 0 7 1;
#X connect 7 0 12 0;
#X connect 10 0 2 0;
#X connect 11 0 6 0;
#X connect 12 0 9 0;
#X connect 13 0 12 1;
#X connect 14 0 12 2;
