#N canvas 313 118 666 439 12;
#X obj 104 32 inlet~;
#X obj 104 144 *~;
#X obj 156 126 line~;
#X obj 156 78 expr 1-$f1;
#X obj 281 60 f;
#X obj 281 36 inlet;
#X obj 300 126 line~;
#X obj 235 144 *~;
#X text 127 195 Actual calculation, f 11;
#X obj 104 318 outlet~;
#X obj 156 104 pack 0 10;
#X obj 300 103 pack 0 10;
#N canvas 563 160 450 300 Core 0;
#X obj 39 140 inlet~;
#X obj 39 225 outlet~;
#X obj 340 95 inlet;
#X obj 340 118 switch~;
#X obj 39 188 *~;
#X connect 0 0 4 0;
#X connect 2 0 3 0;
#X connect 4 0 1 0;
#X restore 235 220 pd Core;
#X obj 349 168 hsl 128 15 0.5 10 0 0 empty empty speed -2 -8 0 10 -262144
-1 -1 0 1;
#X obj 347 205 hsl 128 15 0.05 0.5 0 0 empty empty depth -2 -8 0 10
-262144 -1 -1 0 1;
#X connect 0 0 1 0;
#X connect 0 0 7 0;
#X connect 1 0 9 0;
#X connect 2 0 1 1;
#X connect 3 0 10 0;
#X connect 4 0 3 0;
#X connect 4 0 11 0;
#X connect 4 0 12 1;
#X connect 5 0 4 0;
#X connect 6 0 7 1;
#X connect 7 0 12 0;
#X connect 10 0 2 0;
#X connect 11 0 6 0;
#X connect 12 0 9 0;
