#N canvas 253 163 666 439 12;
#X obj 104 32 inlet~;
#X obj 104 144 *~;
#X obj 156 126 line~;
#X obj 156 78 expr 1-$f1;
#X obj 281 60 f;
#X obj 281 36 inlet;
#X obj 300 126 line~;
#X obj 235 144 *~;
#X text 127 195 Actual calculation, f 11;
#X obj 104 318 outlet~;
#X obj 156 104 pack 0 10;
#X obj 300 103 pack 0 10;
#N canvas 724 157 499 407 Core 0;
#X obj 39 43 inlet~;
#X obj 45 293 outlet~;
#X obj 295 36 inlet;
#X obj 295 63 switch~;
#X obj 226 40 inlet;
#X obj 112 40 inlet;
#X obj 39 79 delwrite~ vibrato 50;
#X obj 330 232 vd~ vibrato;
#X obj 438 132 hsl 128 15 0 5 0 0 empty empty empty -2 -8 0 10 -262144
-1 -1 2400 1;
#X obj 331 137 osc~ 2;
#X obj 348 106 hsl 128 15 2 20 0 0 empty empty empty -2 -8 0 10 -262144
-1 -1 1200 1;
#X obj 329 195 *~;
#X obj 360 276 tgl 15 0 empty empty empty 17 7 0 10 -262144 -1 -1 1
1;
#X obj 360 319 snapshot~;
#X obj 363 344 hsl 128 15 0 2 0 0 empty empty empty -2 -8 0 10 -262144
-1 -1 0 1;
#X obj 360 296 metro 10;
#X obj 330 160 +~ 1;
#X obj 45 197 osc~ 2;
#X obj 45 220 *~ 1;
#X obj 45 243 +~ 2;
#X obj 45 266 vd~ vibrato;
#X obj 135 214 * 2;
#X obj 217 243 +;
#X floatatom 217 266 5 0 0 0 - - -;
#X connect 0 0 6 0;
#X connect 2 0 3 0;
#X connect 4 0 18 1;
#X connect 4 0 21 0;
#X connect 4 0 22 1;
#X connect 5 0 17 0;
#X connect 8 0 11 1;
#X connect 9 0 16 0;
#X connect 10 0 9 0;
#X connect 11 0 7 0;
#X connect 12 0 15 0;
#X connect 13 0 14 0;
#X connect 15 0 13 0;
#X connect 16 0 11 0;
#X connect 17 0 18 0;
#X connect 18 0 19 0;
#X connect 19 0 20 0;
#X connect 20 0 1 0;
#X connect 21 0 19 1;
#X connect 21 0 22 0;
#X connect 22 0 23 0;
#X restore 235 220 pd Core;
#X obj 349 168 hsl 128 15 1 20 0 0 empty empty frequency -2 -8 0 10
-262144 -1 -1 3500 1;
#X obj 349 205 hsl 128 15 0 5 0 0 empty empty depth -2 -8 0 10 -262144
-1 -1 300 1;
#X connect 0 0 1 0;
#X connect 0 0 7 0;
#X connect 1 0 9 0;
#X connect 2 0 1 1;
#X connect 3 0 10 0;
#X connect 4 0 3 0;
#X connect 4 0 11 0;
#X connect 4 0 12 3;
#X connect 5 0 4 0;
#X connect 6 0 7 1;
#X connect 7 0 12 0;
#X connect 10 0 2 0;
#X connect 11 0 6 0;
#X connect 12 0 9 0;
#X connect 13 0 12 1;
#X connect 14 0 12 2;
