#N canvas 253 163 666 439 12;
#X obj 104 32 inlet~;
#X obj 104 144 *~;
#X obj 156 126 line~;
#X obj 156 78 expr 1-$f1;
#X obj 281 60 f;
#X obj 281 36 inlet;
#X obj 300 126 line~;
#X obj 235 144 *~;
#X text 127 195 Actual calculation, f 11;
#X obj 104 318 outlet~;
#X obj 156 104 pack 0 10;
#X obj 300 103 pack 0 10;
#N canvas 751 145 499 407 Core 1;
#X obj 39 43 inlet~;
#X obj 40 222 outlet~;
#X obj 295 36 inlet;
#X obj 295 63 switch~;
#X obj 226 40 inlet;
#X obj 112 40 inlet;
#X obj 169 41 inlet;
#X obj 112 84 osc~;
#X obj 112 117 *~;
#X obj 112 140 clip~ -1 1;
#X obj 112 163 *~;
#X floatatom 238 68 5 0 0 0 - - -;
#X obj 226 94 expr 1-$f1;
#X floatatom 238 117 5 0 0 0 - - -;
#X obj 112 186 +~;
#X obj 39 157 *~;
#X connect 0 0 15 0;
#X connect 2 0 3 0;
#X connect 4 0 10 1;
#X connect 4 0 11 0;
#X connect 4 0 12 0;
#X connect 5 0 7 0;
#X connect 6 0 8 1;
#X connect 7 0 8 0;
#X connect 8 0 9 0;
#X connect 9 0 10 0;
#X connect 10 0 14 0;
#X connect 12 0 13 0;
#X connect 12 0 14 1;
#X connect 14 0 15 1;
#X connect 15 0 1 0;
#X restore 235 220 pd Core;
#X obj 349 168 hsl 128 15 0.5 15 0 0 empty empty frequency -2 -8 0
10 -262144 -1 -1 2100 1;
#X obj 348 205 hsl 128 15 1 20 0 0 empty empty val -2 -8 0 10 -262144
-1 -1 100 1;
#X obj 349 245 hsl 128 15 0 1 0 0 empty empty depth -2 -8 0 10 -262144
-1 -1 3600 1;
#X connect 0 0 1 0;
#X connect 0 0 7 0;
#X connect 1 0 9 0;
#X connect 2 0 1 1;
#X connect 3 0 10 0;
#X connect 4 0 3 0;
#X connect 4 0 11 0;
#X connect 4 0 12 4;
#X connect 5 0 4 0;
#X connect 6 0 7 1;
#X connect 7 0 12 0;
#X connect 10 0 2 0;
#X connect 11 0 6 0;
#X connect 12 0 9 0;
#X connect 13 0 12 1;
#X connect 14 0 12 2;
#X connect 15 0 12 3;
